<svg xmlns="http://www.w3.org/2000/svg" width="512" height="512" viewBox="0 0 512 512">
  <defs>
    <radialGradient id="a" cx="50%" cy="50%" r="50%">
      <stop offset="0%" stop-color="#5A2D82"/>
      <stop offset="60%" stop-color="#3D1F5C"/>
      <stop offset="100%" stop-color="#2A0F3A"/>
    </radialGradient>
  </defs>
  <circle cx="256" cy="256" r="240" fill="url(#a)" stroke="#FFF" stroke-width="16" opacity="0.9"/>
  <path d="M256 120c-60 0-110 50-110 110s50 110 110 110 110-50 110-110-50-110-110-110zm0 180c-44 0-80-36-80-80s36-80 80-80 80 36 80 80-36 80-80 80z" fill="#FFF"/>
  <circle cx="200" cy="200" r="20" fill="#5A2D82"/>
  <circle cx="312" cy="200" r="20" fill="#5A2D82"/>
  <path d="M180 280 Q256 320 332 280" stroke="#5A2D82" stroke-width="12" stroke-linecap="round" fill="none"/>
  <circle cx="256" cy="380" r="60" fill="none" stroke="#FFF" stroke-width="12" opacity="0.8"/>
</svg>